<svg width="31" height="31" viewBox="0 0 31 31" fill="none" xmlns="http://www.w3.org/2000/svg">
<path d="M25.4006 6.79995C25.468 6.71024 25.5033 6.60046 25.5008 6.48826C25.4982 6.37607 25.458 6.26799 25.3866 6.18141C25.3152 6.09483 25.2168 6.03479 25.1071 6.01094C24.9975 5.9871 24.883 6.00083 24.7821 6.04995L17.7296 9.49995L15.9861 2.38095C15.9593 2.27238 15.897 2.1759 15.809 2.10693C15.721 2.03797 15.6124 2.00049 15.5006 2.00049C15.3888 2.00049 15.2802 2.03797 15.1922 2.10693C15.1042 2.1759 15.0418 2.27238 15.0151 2.38095L13.2721 9.49995L6.22008 6.04995C6.11914 6.00038 6.00444 5.98628 5.8945 6.00994C5.78456 6.0336 5.6858 6.09363 5.61418 6.18033C5.54257 6.26703 5.50227 6.37535 5.4998 6.48778C5.49733 6.60021 5.53284 6.71019 5.60058 6.79995L10.3631 13.0999L2.28108 17.0499C2.1791 17.0993 2.09692 17.1819 2.04801 17.2841C1.9991 17.3863 1.98635 17.5021 2.01186 17.6125C2.03737 17.7229 2.09962 17.8214 2.18841 17.8918C2.27721 17.9622 2.38727 18.0003 2.50058 17.9999H11.1901L9.01508 26.8809C8.98773 26.9928 8.99984 27.1107 9.04937 27.2147C9.0989 27.3187 9.18281 27.4024 9.28692 27.4516C9.39103 27.5009 9.50896 27.5127 9.62077 27.4851C9.73258 27.4574 9.83142 27.392 9.90058 27.2999L15.5006 19.8934L21.1006 27.2999C21.1472 27.362 21.2075 27.4124 21.277 27.4472C21.3464 27.4819 21.423 27.4999 21.5006 27.4999C21.5749 27.4996 21.6483 27.4826 21.7151 27.4499C21.819 27.4005 21.9027 27.3168 21.9521 27.2129C22.0014 27.109 22.0134 26.9912 21.9861 26.8794L19.8116 17.9999H28.5006C28.6139 18.0003 28.724 17.9622 28.8127 17.8918C28.9015 17.8214 28.9638 17.7229 28.9893 17.6125C29.0148 17.5021 29.0021 17.3863 28.9531 17.2841C28.9042 17.1819 28.8221 17.0993 28.7201 17.0499L20.6376 13.0999L25.4006 6.79995ZM23.3396 7.86695L19.7221 12.6499L18.3356 11.9739L17.9726 10.4924L23.3396 7.86695ZM15.5006 4.59995L16.8101 9.94995L15.5006 10.5879L14.1916 9.94995L15.5006 4.59995ZM7.66258 7.86895L13.0286 10.4924L12.6661 11.9739L11.2791 12.6499L7.66258 7.86895ZM4.66158 16.9999L10.9786 13.9119L11.8946 15.1234L11.4351 16.9999H4.66158ZM10.5616 24.7664L12.2196 17.9999H14.0696L14.8746 19.0644L10.5616 24.7664ZM14.7166 17.1999C14.67 17.1378 14.6096 17.0874 14.5402 17.0527C14.4708 17.018 14.3942 16.9999 14.3166 16.9999H12.4646L12.9221 15.1309C12.9399 15.0588 12.9413 14.9835 12.9264 14.9107C12.9114 14.8378 12.8804 14.7693 12.8356 14.7099L11.8936 13.4644L13.3151 12.7694C13.381 12.7373 13.439 12.6911 13.4851 12.6341C13.5311 12.5771 13.5641 12.5106 13.5816 12.4394L13.9481 10.9394L15.2811 11.5894C15.3495 11.6225 15.4246 11.6397 15.5006 11.6397C15.5766 11.6397 15.6516 11.6225 15.7201 11.5894L17.0531 10.9394L17.4201 12.4394C17.4375 12.5106 17.4704 12.577 17.5164 12.634C17.5623 12.6911 17.6203 12.7373 17.6861 12.7694L19.1076 13.4644L18.1661 14.7099C18.1212 14.7692 18.0901 14.8378 18.075 14.9106C18.06 14.9834 18.0614 15.0587 18.0791 15.1309L18.5371 16.9999H16.6836C16.606 16.9999 16.5294 17.018 16.46 17.0527C16.3905 17.0874 16.3302 17.1378 16.2836 17.1999L15.5006 18.2354L14.7166 17.1999ZM20.4386 24.7664L16.1276 19.0664L16.9326 17.9999H18.7826L20.4386 24.7664ZM26.3396 16.9999H19.5666L19.1071 15.1234L20.0231 13.9119L26.3396 16.9999Z" fill="white"/>
<path d="M15.4997 25C15.1041 25 14.7174 25.1173 14.3885 25.3371C14.0596 25.5568 13.8033 25.8692 13.6519 26.2346C13.5005 26.6001 13.4609 27.0022 13.5381 27.3902C13.6153 27.7781 13.8058 28.1345 14.0855 28.4142C14.3652 28.6939 14.7215 28.8844 15.1095 28.9616C15.4975 29.0387 15.8996 28.9991 16.2651 28.8478C16.6305 28.6964 16.9429 28.44 17.1626 28.1111C17.3824 27.7822 17.4997 27.3956 17.4997 27C17.4997 26.4696 17.289 25.9609 16.9139 25.5858C16.5388 25.2107 16.0301 25 15.4997 25ZM15.4997 28C15.3019 28 15.1086 27.9413 14.9441 27.8315C14.7797 27.7216 14.6515 27.5654 14.5758 27.3827C14.5001 27.2 14.4803 26.9989 14.5189 26.8049C14.5575 26.6109 14.6527 26.4327 14.7926 26.2929C14.9324 26.153 15.1106 26.0578 15.3046 26.0192C15.4986 25.9806 15.6996 26.0004 15.8824 26.0761C16.0651 26.1518 16.2213 26.28 16.3312 26.4444C16.441 26.6089 16.4997 26.8022 16.4997 27C16.4997 27.2652 16.3943 27.5196 16.2068 27.7071C16.0193 27.8946 15.7649 28 15.4997 28ZM6.94969 19.2765C6.90349 19.199 6.83796 19.1348 6.75951 19.0903C6.68107 19.0457 6.5924 19.0223 6.50219 19.0223C6.41197 19.0223 6.3233 19.0457 6.24486 19.0903C6.16641 19.1348 6.10089 19.199 6.05469 19.2765L4.55469 22.2765C4.51668 22.3526 4.4987 22.4371 4.50244 22.522C4.50618 22.6069 4.53152 22.6895 4.57606 22.762C4.62061 22.8344 4.68289 22.8942 4.75701 22.9359C4.83114 22.9775 4.91466 22.9996 4.99969 23H7.99969C8.08492 23 8.16876 22.9783 8.24322 22.9368C8.31769 22.8953 8.38031 22.8355 8.42515 22.763C8.46999 22.6905 8.49555 22.6078 8.49941 22.5226C8.50326 22.4375 8.48529 22.3527 8.44719 22.2765L6.94969 19.2765ZM5.80869 22L6.49969 20.618L7.19069 22H5.80869ZM24.0742 10.7375C24.0294 10.8099 24.0039 10.8926 24.0001 10.9776C23.9962 11.0627 24.0142 11.1473 24.0522 11.2235L25.5522 14.2235C25.5936 14.3067 25.6575 14.3767 25.7365 14.4256C25.8156 14.4745 25.9067 14.5005 25.9997 14.5005C26.0926 14.5005 26.1838 14.4745 26.2628 14.4256C26.3419 14.3767 26.4057 14.3067 26.4472 14.2235L27.9472 11.2235C27.9853 11.1473 28.0033 11.0625 27.9994 10.9774C27.9955 10.8922 27.97 10.8095 27.9251 10.737C27.8803 10.6645 27.8177 10.6047 27.7432 10.5632C27.6688 10.5217 27.5849 10.5 27.4997 10.5H24.4997C24.4144 10.5 24.3305 10.5218 24.256 10.5634C24.1816 10.605 24.119 10.6649 24.0742 10.7375ZM26.6907 11.5L25.9997 12.882L25.3087 11.5H26.6907ZM3.47869 13.8375C3.54889 13.8743 3.62686 13.894 3.70614 13.8948C3.78543 13.8955 3.86377 13.8775 3.93469 13.842L6.89169 12.363L7.01719 13.2415L8.00719 13.1L7.78319 11.5345C7.77198 11.4561 7.7423 11.3814 7.69659 11.3167C7.65088 11.2521 7.59046 11.1991 7.52029 11.1624C7.45012 11.1256 7.37223 11.106 7.29302 11.1053C7.2138 11.1045 7.13554 11.1226 7.06469 11.158L4.10769 12.637L3.98219 11.7585L2.99219 11.9L3.21619 13.4655C3.22737 13.5439 3.257 13.6184 3.30264 13.6831C3.34827 13.7478 3.40861 13.8007 3.47869 13.8375ZM26.4742 19.342L25.5242 19.658L25.8062 20.5H22.4997C22.4205 20.5 22.3424 20.5188 22.2718 20.5549C22.2013 20.591 22.1403 20.6433 22.094 20.7075C22.0477 20.7718 22.0173 20.8462 22.0053 20.9245C21.9933 21.0028 22.0001 21.0828 22.0252 21.158L22.5252 22.658L23.4752 22.342L23.1932 21.5H26.4997C26.5789 21.5 26.657 21.4812 26.7275 21.4451C26.7981 21.409 26.859 21.3567 26.9054 21.2924C26.9517 21.2282 26.9821 21.1538 26.9941 21.0755C27.006 20.9972 26.9992 20.9172 26.9742 20.842L26.4742 19.342ZM17.4997 14.5C17.4997 14.1044 17.3824 13.7178 17.1626 13.3889C16.9429 13.06 16.6305 12.8036 16.2651 12.6522C15.8996 12.5009 15.4975 12.4613 15.1095 12.5384C14.7215 12.6156 14.3652 12.8061 14.0855 13.0858C13.8058 13.3655 13.6153 13.7219 13.5381 14.1098C13.4609 14.4978 13.5005 14.8999 13.6519 15.2654C13.8033 15.6308 14.0596 15.9432 14.3885 16.1629C14.7174 16.3827 15.1041 16.5 15.4997 16.5C16.0301 16.5 16.5388 16.2893 16.9139 15.9142C17.289 15.5391 17.4997 15.0304 17.4997 14.5ZM15.4997 15.5C15.3019 15.5 15.1086 15.4413 14.9441 15.3315C14.7797 15.2216 14.6515 15.0654 14.5758 14.8827C14.5001 14.7 14.4803 14.4989 14.5189 14.3049C14.5575 14.1109 14.6527 13.9327 14.7926 13.7929C14.9324 13.653 15.1106 13.5578 15.3046 13.5192C15.4986 13.4806 15.6996 13.5004 15.8824 13.5761C16.0651 13.6518 16.2213 13.78 16.3312 13.9444C16.441 14.1089 16.4997 14.3022 16.4997 14.5C16.4997 14.7652 16.3943 15.0196 16.2068 15.2071C16.0193 15.3946 15.7649 15.5 15.4997 15.5ZM10.6462 6.8535C10.7399 6.94723 10.8671 6.99989 10.9997 6.99989C11.1323 6.99989 11.2594 6.94723 11.3532 6.8535L12.8532 5.3535C12.9469 5.25974 12.9996 5.13258 12.9996 5C12.9996 4.86742 12.9469 4.74026 12.8532 4.6465L11.3532 3.1465C11.2594 3.05276 11.1323 3.00011 10.9997 3.00011C10.8671 3.00011 10.7399 3.05276 10.6462 3.1465L9.14618 4.6465C9.05245 4.74026 8.99979 4.86742 8.99979 5C8.99979 5.13258 9.05245 5.25974 9.14618 5.3535L10.6462 6.8535ZM10.9997 4.207L11.7927 5L10.9997 5.793L10.2067 5L10.9997 4.207ZM20.4997 7C20.6323 7 20.7595 6.94732 20.8532 6.85355C20.947 6.75978 20.9997 6.63261 20.9997 6.5V3.5C20.9997 3.36739 20.947 3.24021 20.8532 3.14645C20.7595 3.05268 20.6323 3 20.4997 3C19.9692 3 19.4605 3.21071 19.0855 3.58579C18.7104 3.96086 18.4997 4.46957 18.4997 5C18.4997 5.53043 18.7104 6.03914 19.0855 6.41421C19.4605 6.78929 19.9692 7 20.4997 7ZM19.9997 4.1345V5.8655C19.8479 5.77766 19.7219 5.65146 19.6343 5.49954C19.5467 5.34763 19.5006 5.17536 19.5006 5C19.5006 4.82464 19.5467 4.65237 19.6343 4.50045C19.7219 4.34854 19.8479 4.22234 19.9997 4.1345Z" fill="white"/>
<path d="M15.5 0C12.4344 0 9.43763 0.909059 6.88867 2.61222C4.33971 4.31538 2.35303 6.73615 1.17987 9.56841C0.00671589 12.4007 -0.300236 15.5172 0.297835 18.5239C0.895906 21.5306 2.37214 24.2924 4.53985 26.4601C6.70756 28.6279 9.4694 30.1041 12.4761 30.7022C15.4828 31.3002 18.5993 30.9933 21.4316 29.8201C24.2638 28.647 26.6846 26.6603 28.3878 24.1113C30.0909 21.5624 31 18.5656 31 15.5C30.9954 11.3906 29.3609 7.45077 26.455 4.54496C23.5492 1.63915 19.6094 0.00463184 15.5 0ZM15.5 30C12.6322 30 9.82875 29.1496 7.44424 27.5563C5.05972 25.963 3.20122 23.6984 2.10375 21.0489C1.00628 18.3994 0.719135 15.4839 1.27862 12.6712C1.83811 9.85846 3.2191 7.27481 5.24696 5.24695C7.27482 3.21909 9.85847 1.8381 12.6712 1.27861C15.4839 0.719128 18.3994 1.00628 21.0489 2.10375C23.6984 3.20122 25.963 5.05972 27.5563 7.44423C29.1496 9.82874 30 12.6322 30 15.5C29.9956 19.3443 28.4666 23.0299 25.7482 25.7482C23.0299 28.4665 19.3443 29.9956 15.5 30Z" fill="white"/>
</svg>
