<svg width="26" height="26" viewBox="0 0 26 26" fill="none" xmlns="http://www.w3.org/2000/svg">
<path d="M13.4997 22C13.1041 22 12.7174 22.1173 12.3885 22.3371C12.0596 22.5568 11.8033 22.8692 11.6519 23.2346C11.5005 23.6001 11.4609 24.0022 11.5381 24.3902C11.6153 24.7781 11.8058 25.1345 12.0855 25.4142C12.3652 25.6939 12.7215 25.8844 13.1095 25.9616C13.4975 26.0387 13.8996 25.9991 14.2651 25.8478C14.6305 25.6964 14.9429 25.44 15.1626 25.1111C15.3824 24.7822 15.4997 24.3956 15.4997 24C15.4997 23.4696 15.289 22.9609 14.9139 22.5858C14.5388 22.2107 14.0301 22 13.4997 22ZM13.4997 25C13.3019 25 13.1086 24.9413 12.9441 24.8315C12.7797 24.7216 12.6515 24.5654 12.5758 24.3827C12.5001 24.2 12.4803 23.9989 12.5189 23.8049C12.5575 23.6109 12.6527 23.4327 12.7926 23.2929C12.9324 23.153 13.1106 23.0578 13.3046 23.0192C13.4986 22.9806 13.6996 23.0004 13.8824 23.0761C14.0651 23.1518 14.2213 23.28 14.3312 23.4444C14.441 23.6089 14.4997 23.8022 14.4997 24C14.4997 24.2652 14.3943 24.5196 14.2068 24.7071C14.0193 24.8946 13.7649 25 13.4997 25ZM4.94969 16.2765C4.90349 16.199 4.83796 16.1348 4.75951 16.0903C4.68107 16.0457 4.5924 16.0223 4.50219 16.0223C4.41197 16.0223 4.3233 16.0457 4.24486 16.0903C4.16641 16.1348 4.10089 16.199 4.05469 16.2765L2.55469 19.2765C2.51668 19.3526 2.4987 19.437 2.50244 19.522C2.50618 19.6069 2.53152 19.6895 2.57606 19.762C2.62061 19.8344 2.68289 19.8942 2.75701 19.9359C2.83114 19.9775 2.91466 19.9996 2.99969 20H5.99969C6.08492 20 6.16876 19.9783 6.24322 19.9368C6.31769 19.8953 6.38031 19.8355 6.42515 19.763C6.46999 19.6905 6.49555 19.6078 6.49941 19.5226C6.50326 19.4375 6.48529 19.3527 6.44719 19.2765L4.94969 16.2765ZM3.80869 19L4.49969 17.618L5.19069 19H3.80869ZM22.0742 7.7375C22.0294 7.80993 22.0039 7.89259 22.0001 7.97764C21.9962 8.06269 22.0142 8.14732 22.0522 8.2235L23.5522 11.2235C23.5936 11.3067 23.6575 11.3767 23.7365 11.4256C23.8156 11.4745 23.9067 11.5005 23.9997 11.5005C24.0926 11.5005 24.1838 11.4745 24.2628 11.4256C24.3419 11.3767 24.4057 11.3067 24.4472 11.2235L25.9472 8.2235C25.9853 8.14725 26.0033 8.06253 25.9994 7.97738C25.9955 7.89223 25.97 7.80947 25.9251 7.73698C25.8803 7.66449 25.8177 7.60467 25.7432 7.56319C25.6688 7.52171 25.5849 7.49996 25.4997 7.5H22.4997C22.4144 7.50001 22.3305 7.52183 22.256 7.5634C22.1816 7.60497 22.119 7.66491 22.0742 7.7375ZM24.6907 8.5L23.9997 9.882L23.3087 8.5H24.6907ZM1.47869 10.8375C1.54889 10.8743 1.62686 10.894 1.70614 10.8948C1.78543 10.8955 1.86377 10.8775 1.93469 10.842L4.89169 9.363L5.01719 10.2415L6.00719 10.1L5.78319 8.5345C5.77198 8.45608 5.7423 8.38145 5.69659 8.31675C5.65088 8.25205 5.59046 8.19914 5.52029 8.16237C5.45012 8.1256 5.37223 8.10603 5.29302 8.10527C5.2138 8.10451 5.13554 8.12258 5.06469 8.158L2.10769 9.637L1.98219 8.7585L0.992188 8.9L1.21619 10.4655C1.22737 10.5439 1.257 10.6184 1.30264 10.6831C1.34827 10.7478 1.40861 10.8007 1.47869 10.8375ZM24.4742 16.342L23.5242 16.658L23.8062 17.5H20.4997C20.4205 17.5 20.3424 17.5188 20.2718 17.5549C20.2013 17.591 20.1403 17.6433 20.094 17.7075C20.0477 17.7718 20.0173 17.8462 20.0053 17.9245C19.9933 18.0028 20.0001 18.0828 20.0252 18.158L20.5252 19.658L21.4752 19.342L21.1932 18.5H24.4997C24.5789 18.5 24.657 18.4812 24.7275 18.4451C24.7981 18.409 24.859 18.3567 24.9054 18.2924C24.9517 18.2282 24.9821 18.1538 24.9941 18.0755C25.006 17.9972 24.9992 17.9172 24.9742 17.842L24.4742 16.342ZM15.4997 11.5C15.4997 11.1044 15.3824 10.7178 15.1626 10.3889C14.9429 10.06 14.6305 9.80361 14.2651 9.65224C13.8996 9.50086 13.4975 9.46126 13.1095 9.53843C12.7215 9.6156 12.3652 9.80608 12.0855 10.0858C11.8058 10.3655 11.6153 10.7219 11.5381 11.1098C11.4609 11.4978 11.5005 11.8999 11.6519 12.2654C11.8033 12.6308 12.0596 12.9432 12.3885 13.1629C12.7174 13.3827 13.1041 13.5 13.4997 13.5C14.0301 13.5 14.5388 13.2893 14.9139 12.9142C15.289 12.5391 15.4997 12.0304 15.4997 11.5ZM13.4997 12.5C13.3019 12.5 13.1086 12.4413 12.9441 12.3315C12.7797 12.2216 12.6515 12.0654 12.5758 11.8827C12.5001 11.7 12.4803 11.4989 12.5189 11.3049C12.5575 11.1109 12.6527 10.9327 12.7926 10.7929C12.9324 10.653 13.1106 10.5578 13.3046 10.5192C13.4986 10.4806 13.6996 10.5004 13.8824 10.5761C14.0651 10.6518 14.2213 10.78 14.3312 10.9444C14.441 11.1089 14.4997 11.3022 14.4997 11.5C14.4997 11.7652 14.3943 12.0196 14.2068 12.2071C14.0193 12.3946 13.7649 12.5 13.4997 12.5ZM8.64618 3.8535C8.73995 3.94723 8.8671 3.99989 8.99968 3.99989C9.13227 3.99989 9.25942 3.94723 9.35318 3.8535L10.8532 2.3535C10.9469 2.25974 10.9996 2.13258 10.9996 2C10.9996 1.86742 10.9469 1.74026 10.8532 1.6465L9.35318 0.1465C9.25942 0.0527646 9.13227 0.000106811 8.99968 0.000106811C8.8671 0.000106811 8.73995 0.0527646 8.64618 0.1465L7.14618 1.6465C7.05245 1.74026 6.99979 1.86742 6.99979 2C6.99979 2.13258 7.05245 2.25974 7.14618 2.3535L8.64618 3.8535ZM8.99968 1.207L9.79268 2L8.99968 2.793L8.20668 2L8.99968 1.207ZM18.4997 4C18.6323 4 18.7595 3.94732 18.8532 3.85355C18.947 3.75978 18.9997 3.63261 18.9997 3.5V0.5C18.9997 0.367392 18.947 0.240215 18.8532 0.146447C18.7595 0.0526785 18.6323 0 18.4997 0C17.9692 0 17.4605 0.210714 17.0855 0.585786C16.7104 0.960859 16.4997 1.46957 16.4997 2C16.4997 2.53043 16.7104 3.03914 17.0855 3.41421C17.4605 3.78929 17.9692 4 18.4997 4ZM17.9997 1.1345V2.8655C17.8479 2.77766 17.7219 2.65146 17.6343 2.49954C17.5467 2.34763 17.5006 2.17536 17.5006 2C17.5006 1.82464 17.5467 1.65237 17.6343 1.50045C17.7219 1.34854 17.8479 1.22234 17.9997 1.1345Z" fill="white"/>
</svg>
